<?xml version="1.0" standalone="no"?>
<!DOCTYPE svg PUBLIC "-//W3C//DTD SVG 20010904//EN"
 "http://www.w3.org/TR/2001/REC-SVG-20010904/DTD/svg10.dtd">
<svg version="1.0" xmlns="http://www.w3.org/2000/svg"
 width="260.000000pt" height="260.000000pt" viewBox="0 0 260.000000 260.000000"
 preserveAspectRatio="xMidYMid meet">
<metadata>
Created by potrace 1.14, written by Peter Selinger 2001-2017
</metadata>
<g transform="translate(0.000000,260.000000) scale(0.100000,-0.100000)"
fill="#000000" stroke="none">
<path d="M286 2584 c-118 -37 -226 -142 -264 -258 -20 -60 -21 -82 -22 -1016
0 -1061 -2 -1023 66 -1126 44 -66 111 -122 184 -155 l55 -24 960 -3 c713 -2
974 0 1015 9 127 27 219 99 277 217 l38 76 0 996 0 996 -37 76 c-45 91 -103
147 -196 191 l-67 32 -980 2 c-851 1 -986 0 -1029 -13z m1353 -927 c56 -37 80
-91 81 -176 0 -128 -52 -180 -215 -216 -38 -8 -113 -25 -165 -36 -160 -35
-174 -46 -168 -135 l3 -49 290 -3 c375 -3 372 -4 378 177 4 112 22 165 72 217
59 62 106 72 315 73 l171 0 -3 -57 -3 -57 -165 0 c-180 -1 -206 -7 -244 -58
-18 -24 -21 -43 -21 -122 0 -79 3 -98 21 -122 37 -50 64 -57 241 -57 105 0
163 -4 166 -10 1 -6 3 -31 2 -56 l0 -45 -173 -2 c-187 -2 -245 8 -289 49 -20
19 -27 20 -41 10 -9 -7 -39 -23 -67 -36 -50 -24 -53 -24 -396 -25 -292 -1
-348 1 -358 13 -11 13 -18 13 -52 1 -23 -9 -68 -13 -113 -11 -61 2 -83 8 -129
34 -47 26 -57 29 -67 17 -7 -8 -37 -24 -68 -35 -44 -17 -75 -21 -159 -19 -93
1 -111 5 -161 30 -60 30 -95 71 -112 130 -6 19 -10 123 -10 231 l0 198 60 0
60 0 0 -37 c1 -21 2 -111 3 -200 l2 -163 33 -32 c30 -31 37 -33 114 -37 96 -4
146 9 173 47 18 24 20 46 23 225 l3 198 57 -3 56 -3 1 -190 c0 -167 3 -194 19
-221 31 -52 123 -70 192 -38 39 19 51 37 60 89 8 55 31 101 60 124 35 28 143
58 397 112 68 14 97 43 97 96 0 91 -27 100 -307 99 l-223 -1 0 58 0 59 258 -4
259 -3 42 -28z"/>
</g>
</svg>
