<svg width="16" height="16" viewBox="0 0 16 16" fill="none" xmlns="http://www.w3.org/2000/svg">
<g clip-path="url(#clip0_7_14)">
<path d="M6.56179 1.15115V14.8536C3.38756 14.781 0.176108 12.184 0.00668223 8.30594C-0.166084 4.34332 2.96137 1.28776 6.56179 1.15115Z" fill="#0CB4BD"/>
<path d="M15.1357 9.44992C14.9773 13.1474 11.9266 15.9107 8.58298 16V9.44992H15.1357Z" fill="#0CB4BD"/>
<path d="M8.2952 6.11923V0C9.9613 0.0859778 11.4012 0.684479 12.6244 1.78547C11.1788 3.23229 9.7408 4.67194 8.2952 6.11923Z" fill="#0CB4BD"/>
<path d="M9.88779 7.70601C11.3281 6.26397 12.7661 4.82432 14.2127 3.37607C15.3132 4.59791 15.9084 6.03852 16.0005 7.70601H9.88826H9.88779Z" fill="#0CB4BD"/>
</g>
<defs>
<clipPath id="clip0_7_14">
<rect width="16" height="16" fill="white"/>
</clipPath>
</defs>
</svg>
