<svg xmlns="http://www.w3.org/2000/svg" width="12" height="12" fill="none"><g fill="#0CB4BD" clip-path="url(#a)"><path d="M9.186 12a6.472 6.472 0 0 1-1.819-.476c-1.16-.476-2.188-1.16-3.141-1.965C2.915 8.452 1.809 7.17.966 5.672.522 4.883.186 4.053.022 3.157c-.05-.27-.02-.501.141-.731C.71 1.644 1.305.906 2.01.26A1.92 1.92 0 0 1 2.24.08c.172-.115.291-.107.447.031.069.062.136.13.19.207.547.772 1.053 1.57 1.46 2.426.213.448.191.534-.178.863-.24.214-.48.428-.726.634-.112.093-.13.185-.086.323.31.982.838 1.828 1.566 2.55a6.14 6.14 0 0 0 2.352 1.47c.337.116.342.116.586-.148.152-.164.291-.338.439-.506.082-.093.168-.184.254-.275.139-.145.303-.187.486-.097.356.174.72.337 1.06.537.5.294.985.613 1.47.93.119.076.227.174.324.278.138.147.156.276.029.431a7.399 7.399 0 0 1-.647.712c-.565.533-1.162 1.03-1.826 1.44-.091.057-.198.089-.256.114ZM6.421.852V.02c2.717-.124 5.584 2.254 5.565 5.539h-.845c-.03-1.288-.476-2.405-1.389-3.318C8.838 1.328 7.721.88 6.422.852Z"/><path d="M9.837 5.562h-.84c-.022-.698-.26-1.31-.76-1.809-.498-.495-1.105-.739-1.81-.758v-.84c1.832-.053 3.459 1.555 3.41 3.407Z"/></g><defs><clipPath id="a"><path fill="#fff" d="M0 0h12v12H0z"/></clipPath></defs></svg>