<svg xmlns="http://www.w3.org/2000/svg" width="12" height="11" fill="none"><g fill="#0CB4BD" clip-path="url(#a)"><path d="M12 .434c-.04.202-.082.404-.116.608-.162.957-.324 1.915-.484 2.873l-.456 2.71c-.107.633-.212 1.267-.323 1.9-.042.24-.256.357-.514.28l-5.19-1.567c-.004-.001-.007-.004-.025-.014L9.92 1.875l-.022-.02-.235.177C7.594 3.594 5.525 5.156 3.458 6.719c-.06.045-.108.049-.178.027L.292 5.843C.124 5.793.014 5.7 0 5.542c-.014-.16.081-.264.238-.336l8.828-4.07L11.359.079c.31-.142.473-.1.64.168v.186ZM4.383 7.778l2.025.611-.27.324L5.08 9.987c-.092.11-.206.18-.366.165-.209-.019-.337-.154-.338-.357V7.863c0-.024.003-.048.007-.085Z"/></g><defs><clipPath id="a"><path fill="#fff" d="M0 0h12v10.154H0z"/></clipPath></defs></svg>