<svg width="16" height="16" viewBox="0 0 16 16" fill="none" xmlns="http://www.w3.org/2000/svg">
<path d="M6.76912 8.01778C6.76912 8.16136 6.76912 8.28407 6.76912 8.40761C6.76912 10.3233 6.76912 12.2399 6.77097 14.1556C6.77097 14.3218 6.77931 14.4895 6.80526 14.6531C6.92946 15.4119 7.65427 15.9829 8.50513 15.9996C9.53117 16.0196 10.3227 15.3134 10.3273 14.3301C10.3385 11.7057 10.331 9.08124 10.3292 6.45765C10.3292 6.35414 10.3134 6.2498 10.2958 6.14713C10.1707 5.39753 9.47277 4.82656 8.63026 4.8082C7.98331 4.79401 7.33543 4.79484 6.68848 4.8082C5.95162 4.82323 5.31024 5.27315 5.08408 5.90672C4.77358 6.77819 5.32043 7.88172 6.76819 8.01695L6.76912 8.01778ZM8.57279 3.19214C9.53765 3.18797 10.3394 2.45757 10.3264 1.59444C10.3134 0.701271 9.5117 -0.00909414 8.5283 8.80202e-05C7.56251 0.00927018 6.77097 0.732991 6.77653 1.60279C6.78209 2.49263 7.57734 3.19631 8.57372 3.19214H8.57279Z" fill="#0CB4BD"/>
</svg>
