<svg width="16" height="16" viewBox="0 0 16 16" fill="none" xmlns="http://www.w3.org/2000/svg">
<path d="M7.58824 8.47059C10.1872 8.47059 12.2941 6.57438 12.2941 4.23529C12.2941 1.89621 10.1872 0 7.58824 0C4.98925 0 2.88235 1.89621 2.88235 4.23529C2.88235 6.57438 4.98925 8.47059 7.58824 8.47059Z" fill="#0CB4BD"/>
<path d="M2.07126 14.8958C2.86983 15.6319 4.18456 16 5.96674 16H9.25842C11.0406 16 12.3359 15.6319 13.1052 14.9055C13.8161 14.2468 14.1375 13.4816 14.1765 12.4839C12.3943 11.1472 10.1933 10.3529 7.79762 10.3529C5.21686 10.3529 2.84062 11.2731 1 12.8035C1.09739 13.6462 1.41876 14.3049 2.06152 14.8958H2.07126Z" fill="#0CB4BD"/>
</svg>
