<svg width="143" height="80" viewBox="0 0 143 80" fill="none" xmlns="http://www.w3.org/2000/svg">
<g clip-path="url(#clip0_47_576)">
<path d="M140.9 42.2H122.4C119.1 42.2 116.7 41.3 115.2 39.5C113.7 37.7 112.9 34.8 112.9 30.7C112.9 26.6 113.7 23.6 115.2 21.8C116.7 20 119.1 19.1 122.4 19.1H141.1V11.8H121.6C116.5 11.8 112.6 13.4 109.6 16.4C106.7 19.5 105.2 24.2 105.2 30.6C105.2 31.5 105.2 32.4 105.3 33.3V34.3C105.3 36.5 104.5 38.4 102.9 39.9C101.4 41.3 99.2 42.1 96.3 42.1H63.8C62.9 42.1 62.3 41.5 62.3 40.6V37.1C62.4 36.5 62.4 35.9 62.4 35.3C62.5 34.5 62.7 33.9 63.1 33.3C63.7 32.3 64.9 31.6 66.7 31.2L86.8 26.7C90.6 25.8 93.4 24.4 95.1 22.4C96.8 20.4 97.7 16.6 97.7 13.1C97.7 8.8 96.5 5.5 94.1 3.3C91.7 1.1 88.2 0 83.7 0H56.5V7.4H83.9C86 7.4 87.6 7.9 88.7 9C89.8 10.1 90.4 11.5 90.4 13.3C90.4 14.6 90 16.8 89.3 17.7C88.6 18.6 87.3 19.3 85.5 19.7L65.2 24.3C63.2 24.8 61.5 25.4 60.2 26.1C58.9 26.8 57.9 27.7 57.1 28.8C56.3 29.9 55.8 31.1 55.5 32.6C55.4 33.2 55.3 33.8 55.2 34.4H55.1C55.1 36.6 54.3 38.5 52.7 40C51.2 41.4 49 42.1 46.3 42.2C43.5 42.1 41.4 41.4 39.9 40C38.5 38.7 37.7 37 37.6 35.1C37.6 35 37.6 34.8 37.6 34.7V11.8H30V34.7C30 34.8 30 35 30 35.1C29.9 37 29.1 38.7 27.7 40C26.1 41.5 23.8 42.2 20.8 42.2H17C14 42.2 11.7 41.5 10.1 40C8.5 38.5 7.7 36.7 7.7 34.4V11.8H0V34.7C0 36.9 0.3 38.9 1 40.7C1.7 42.5 2.7 44.1 4.1 45.4C5.5 46.7 7.2 47.7 9.2 48.5C11.2 49.2 13.6 49.6 16.3 49.6H21C23.7 49.6 26.1 49.2 28.1 48.5C30.1 47.8 31.8 46.7 33.2 45.4C33.3 45.3 33.5 45.1 33.6 45C33.7 45.1 33.9 45.3 34 45.4C35.4 46.7 37.1 47.7 39.1 48.5C41.1 49.2 43.3 49.6 45.9 49.6H46H46.1C48.7 49.6 51 49.2 52.9 48.5C53.6 48.3 54.2 48 54.8 47.7C55.2 49 56.3 49.6 58.1 49.6H89.1H96.1C98.8 49.6 101.2 49.2 103.2 48.5C105.2 47.8 106.9 46.7 108.3 45.4C108.6 45.2 108.8 44.9 109 44.6C109.1 44.7 109.2 44.8 109.3 44.9C112.2 48 116.2 49.5 121.3 49.5H140.6V42.2" fill="url(#paint0_linear_47_576)"/>
<path d="M9 67.3V76.2H6.1V74.7C5.5 75.7 4.5 76.3 3.2 76.3C1.3 76.4 0 75 0 72.9V67.3H3V72.1C3 73.1 3.6 73.7 4.4 73.7C5.4 73.7 6.1 72.9 6.1 71.7V67.3H9Z" fill="#13949B"/>
<path d="M20.4 70.6V76.2H17.5V71.4C17.5 70.4 16.9 69.8 16 69.8C15 69.8 14.4 70.5 14.3 71.5V76.2H11.4V67.3H14.3V68.8C14.9 67.8 16 67.2 17.3 67.2C19.1 67.2 20.4 68.5 20.4 70.6Z" fill="#13949B"/>
<path d="M25.9 73.8C26.1999 73.8 26.4 73.7 26.7 73.6L27 76C26.4 76.2 25.7999 76.4 25.2999 76.4C23.5999 76.4 22.2 75.3 22.2 73V64H25.1V72.9C25.1 73.5 25.4999 73.8 25.9 73.8Z" fill="#13949B"/>
<path d="M34.6 73L36.3 74.5C35.3 75.7 33.9 76.3 32.2 76.3C29.3 76.3 27.4 74.5 27.4 71.8C27.4 69.1 29.2 67.2 32.1 67.2C34.8 67.2 36.5 68.8 36.6 71.5L30.6 72.9C30.9 73.7 31.6 74.1 32.4 74.1C33.2 74.1 34 73.7 34.6 73ZM30.3 71.3L33.6 70.5C33.4 69.7 32.8 69.3 32.1 69.3C31.1 69.3 30.4 70 30.3 71.3Z" fill="#13949B"/>
<path d="M46.9 67.3V76.2H44V75.1C43.4 75.9 42.5 76.3 41.4 76.3C38.9 76.3 37.2 74.5 37.2 71.7C37.2 69 38.7999 67.2 41.2999 67.2C42.3999 67.2 43.4 67.6 44 68.5V67.3H46.9ZM44 72.1V71.5C43.9 70.3 43.1999 69.6 42.0999 69.6C40.8999 69.6 40.2 70.5 40.2 71.8C40.2 73.1 40.9999 74 42.0999 74C43.0999 74 43.9 73.2 44 72.1Z" fill="#13949B"/>
<path d="M52.3 69.2C51.8 69.2 51.5 69.4 51.5 69.8C51.5 71 56.2 70.4 56.2 73.5C56.2 75.3 54.6 76.4 52.4 76.4C50.9 76.4 49.5 76 48.4 75.1L49.3 73.2C50.3 73.9 51.5 74.3 52.5 74.3C53 74.3 53.4 74.1 53.4 73.8C53.4 72.6 48.8 73.2 48.8 70.1C48.8 68.2 50.4 67.2 52.5 67.2C53.8 67.2 55.1 67.6 56.2 68.2L55.2 70.1C54 69.5 53 69.2 52.3 69.2Z" fill="#13949B"/>
<path d="M66.9 70.6V76.2H64V71.4C64 70.4 63.4 69.8 62.5 69.8C61.4 69.8 60.8 70.6 60.8 71.8V76.2H57.9V64H60.8V68.8C61.4 67.8 62.5 67.2 63.8 67.2C65.6 67.2 66.9 68.5 66.9 70.6Z" fill="#13949B"/>
<path d="M74.5 67.8C74.5 66.9 73.7 66.3 72.5 66.3C71.5 66.3 70.2 66.8 69.2 67.7L68.4 66.2C69.7 65.2 71.2 64.5 72.7 64.5C75 64.5 76.5 65.6 76.5 67.4C76.5 68.6 75.6 69.9 74.3 71.2L71.1 74.4H77V76.1H68.5V74.7L72.9 70.1C73.9 69.4 74.5 68.4 74.5 67.8Z" fill="#023852"/>
<path d="M83.1 69C81.6 69 80.5 70.1 80.5 71.8C80.5 73.5 81.6 74.6 83.1 74.6C84.2 74.6 85.1 74.2 85.7 73.5L86.8 74.6C86 75.6 84.7 76.2 83.1 76.2C80.5 76.2 78.7 74.4 78.7 71.8C78.7 69.1 80.5 67.3 83.1 67.3C84.7 67.3 85.9 67.8 86.7 68.7L85.7 69.9C85 69.4 84.1 69 83.1 69Z" fill="#023852"/>
<path d="M96.5 67.4V76.2H94.6V74.7C94 75.7 92.9 76.3 91.5 76.3C89 76.3 87.3 74.5 87.3 71.8C87.3 69.2 89 67.4 91.4 67.4C92.8 67.4 93.9 67.9 94.5 69V67.5H96.5V67.4ZM94.6 72.2V71.6C94.5 70 93.4 69 92 69C90.4 69 89.3 70.2 89.3 71.9C89.3 73.6 90.4 74.8 92 74.8C93.4 74.7 94.5 73.7 94.6 72.2Z" fill="#023852"/>
<path d="M108.4 71.9C108.4 74.5 106.7 76.3 104.2 76.3C102.8 76.3 101.7 75.7 101.1 74.7V79.4H99.2V67.4H101.1V69C101.7 68 102.8 67.4 104.2 67.4C106.7 67.4 108.4 69.2 108.4 71.9ZM106.5 71.8C106.5 70.2 105.4 69 103.8 69C102.2 69 101.1 70.2 101.1 71.8C101.1 73.5 102.2 74.7 103.8 74.7C105.4 74.7 106.5 73.5 106.5 71.8Z" fill="#023852"/>
<path d="M114.6 75.7C113.9 76.1 113.2 76.3 112.5 76.3C111.1 76.3 110 75.3 110 73.4V65.3H111.9V67.7H114.5V69.1H111.9V73C111.9 74 112.2 74.5 112.9 74.5C113.2 74.5 113.7 74.4 114.2 74.1L114.6 75.7Z" fill="#023852"/>
<path d="M124.2 67.4V76.2H122.3V74.5C121.7 75.7 120.6 76.3 119.2 76.3C117.2 76.3 116 75 116 72.9V67.4H117.9V72.3C117.9 73.6 118.7 74.4 119.9 74.4C121.4 74.4 122.3 73.2 122.3 71.7V67.4H124.2Z" fill="#023852"/>
<path d="M131.8 67.4V69.2C130 69.1 128.9 70.1 128.8 71.6V76.2H126.9V67.4H128.8V69.2C129.3 68 130.4 67.4 131.8 67.4Z" fill="#023852"/>
<path d="M139.6 73.5L140.7 74.5C139.7 75.7 138.4 76.3 136.9 76.3C134.2 76.3 132.3 74.5 132.3 71.8C132.3 69.2 134 67.4 136.7 67.3C139.1 67.3 140.7 68.7 140.8 71.1L134.4 73C134.8 74 135.7 74.7 136.9 74.7C138 74.8 138.9 74.3 139.6 73.5ZM134.2 71.7L139 70.3C138.6 69.3 137.8 68.9 136.8 68.9C135.3 68.9 134.2 69.9 134.2 71.7Z" fill="#023852"/>
</g>
<defs>
<linearGradient id="paint0_linear_47_576" x1="0" y1="24.7617" x2="141.091" y2="24.7617" gradientUnits="userSpaceOnUse">
<stop stop-color="#05B3BC"/>
<stop offset="0.2852" stop-color="#048796"/>
<stop offset="0.6033" stop-color="#035C71"/>
<stop offset="0.8525" stop-color="#02425A"/>
<stop offset="1" stop-color="#023852"/>
</linearGradient>
<clipPath id="clip0_47_576">
<rect width="142.7" height="79.4" fill="white"/>
</clipPath>
</defs>
</svg>
