<svg xmlns="http://www.w3.org/2000/svg" width="161" height="32" fill="none"><g clip-path="url(#a)"><path fill="url(#b)" d="M71.42 11.258h10.936V6.959h-11.34c-2.97 0-5.266.887-7.021 2.73-1.688 1.842-2.565 4.64-2.565 8.392 0 .546 0 1.092.067 1.57v.613c0 1.297-.472 2.389-1.35 3.275-.877.82-2.16 1.297-3.848 1.297H37.195c-.54 0-.877-.341-.877-.887v-2.047c.067-.341.067-.682.067-1.024.068-.477.203-.818.405-1.16.338-.613 1.013-1.023 2.093-1.296l11.746-2.66c2.228-.547 3.848-1.365 4.86-2.525 1.013-1.16 1.485-3.48 1.485-5.459 0-2.524-.675-4.503-2.092-5.8C53.532.683 51.439 0 48.806 0H33.01v4.367H49.01c1.215 0 2.16.34 2.835.955.675.614.945 1.501.945 2.524 0 .751-.202 2.047-.608 2.593-.404.546-1.147.956-2.227 1.16l-11.881 2.73c-1.148.272-2.16.613-2.903 1.091a5.88 5.88 0 0 0-1.822 1.57c-.473.613-.743 1.364-.945 2.25-.068.342-.136.683-.203 1.093h-.068c0 1.296-.472 2.388-1.35 3.275-.877.818-2.16 1.228-3.78 1.296-1.62-.068-2.903-.478-3.78-1.296a4.247 4.247 0 0 1-1.35-2.866V6.959h-4.32v13.715a4.11 4.11 0 0 1-1.35 2.865c-.946.887-2.228 1.297-3.984 1.297H9.991c-1.755 0-3.105-.41-4.05-1.297-.946-.887-1.418-1.978-1.418-3.275V6.96H0v13.51c0 1.296.203 2.456.608 3.548.405 1.092 1.012 1.979 1.822 2.797.81.751 1.823 1.365 2.97 1.843 1.216.41 2.566.682 4.186.682h2.768c1.62 0 2.97-.205 4.185-.682a7.353 7.353 0 0 0 2.97-1.843l.27-.272c.067.068.135.204.27.272.81.751 1.823 1.365 2.97 1.843 1.148.41 2.498.614 3.983.682h.135c1.485 0 2.835-.205 3.983-.682.405-.137.742-.341 1.08-.478.27.75.878 1.16 1.89 1.16H56.231c1.621 0 2.971-.205 4.186-.682a7.353 7.353 0 0 0 2.97-1.843c.135-.136.27-.272.405-.477.068.068.068.136.136.205 1.687 1.842 4.05 2.729 7.02 2.729h11.206v-4.367H71.353c-1.89 0-3.308-.546-4.185-1.57-.878-1.023-1.283-2.797-1.283-5.185 0-2.388.405-4.162 1.283-5.254.945-1.091 2.362-1.637 4.252-1.637Z"/><path fill="#13949B" d="M107.738 6.891v8.324h-2.7v-1.364c-.54.955-1.485 1.433-2.633 1.5-1.755 0-2.902-1.227-2.902-3.206V6.891h2.7v4.435c0 .955.54 1.501 1.35 1.501.945 0 1.553-.75 1.553-1.842V6.891h2.632ZM118.202 9.962v5.253h-2.7V10.78c0-.955-.54-1.5-1.418-1.5-.878 0-1.485.613-1.62 1.569v4.366h-2.7V6.891h2.7v1.365c.607-.955 1.485-1.433 2.7-1.433 1.89-.068 3.038 1.16 3.038 3.139ZM123.332 12.896c.27 0 .473-.069.743-.205l.202 2.251c-.54.205-1.08.342-1.552.342-1.485 0-2.836-1.024-2.836-3.139V3.821h2.701v8.256c0 .614.27.819.742.819ZM131.298 12.213l1.485 1.365c-.945 1.16-2.228 1.706-3.78 1.706-2.633 0-4.456-1.706-4.456-4.23 0-2.525 1.688-4.3 4.253-4.3 2.43 0 4.051 1.502 4.118 3.958l-5.468 1.365c.338.75.945 1.16 1.688 1.16.877 0 1.552-.41 2.16-1.024Zm-3.915-1.637 3.037-.75c-.202-.751-.675-1.093-1.35-1.093-1.012 0-1.62.615-1.687 1.843ZM142.639 6.891v8.324h-2.701v-1.023c-.54.75-1.417 1.16-2.43 1.16-2.295 0-3.848-1.706-3.848-4.299 0-2.524 1.486-4.23 3.781-4.23 1.08 0 1.89.41 2.497 1.16V6.891h2.701Zm-2.701 4.435v-.546c-.135-1.091-.742-1.774-1.755-1.774-1.08 0-1.755.82-1.755 2.047 0 1.228.743 2.047 1.755 2.047.945 0 1.62-.682 1.755-1.774ZM147.566 8.665c-.472 0-.743.137-.743.546 0 1.092 4.321.546 4.321 3.48 0 1.706-1.485 2.66-3.443 2.66-1.35 0-2.7-.409-3.713-1.16l.878-1.773c.945.682 2.025 1.023 2.903 1.023.472 0 .877-.136.877-.477 0-1.16-4.253-.546-4.253-3.412 0-1.706 1.418-2.66 3.376-2.66 1.215 0 2.362.34 3.442.954l-.877 1.774c-1.215-.682-2.093-.955-2.768-.955ZM161 9.962v5.253h-2.7V10.78c0-.955-.54-1.5-1.418-1.5-1.012 0-1.62.75-1.62 1.841v4.094h-2.7V3.821h2.7v4.435c.608-.955 1.485-1.433 2.7-1.433 1.89-.068 3.038 1.16 3.038 3.139Z"/><path fill="#023852" d="M104.701 22.038c0-.818-.675-1.296-1.756-1.296-.877 0-1.89.478-2.767 1.228l-.675-1.296c1.08-.887 2.362-1.433 3.645-1.433 1.89 0 3.24.955 3.24 2.524 0 1.024-.742 2.116-1.822 3.276l-2.701 2.729h4.996v1.5h-7.223v-1.227l3.712-3.89c.811-.818 1.351-1.569 1.351-2.115ZM111.923 23.062c-1.282 0-2.227.955-2.227 2.388 0 1.433.945 2.388 2.227 2.388.946 0 1.688-.341 2.228-.887l.878.887c-.675.887-1.755 1.433-3.173 1.433-2.228 0-3.78-1.57-3.78-3.821 0-2.252 1.552-3.821 3.78-3.821 1.35 0 2.43.41 3.105 1.228l-.877 1.024a3.243 3.243 0 0 0-2.161-.82ZM123.332 21.697v7.506h-1.62v-1.229c-.54.887-1.418 1.365-2.633 1.365-2.16 0-3.578-1.57-3.578-3.89 0-2.25 1.418-3.82 3.511-3.82 1.215 0 2.092.478 2.632 1.365v-1.297h1.688Zm-1.553 4.094v-.546c-.135-1.296-1.012-2.183-2.295-2.183-1.35 0-2.295 1.023-2.295 2.456s.945 2.456 2.295 2.456c1.283 0 2.16-.887 2.295-2.183ZM133.458 25.518c0 2.252-1.418 3.821-3.511 3.821-1.215 0-2.092-.478-2.632-1.365V32h-1.62V21.697h1.62v1.297c.54-.887 1.417-1.365 2.632-1.365 2.026.068 3.511 1.57 3.511 3.89Zm-1.62-.068c0-1.433-.946-2.456-2.296-2.456-1.35 0-2.295 1.023-2.295 2.456s.945 2.456 2.295 2.456 2.296-1.023 2.296-2.456ZM138.723 28.793c-.608.341-1.215.546-1.823.546-1.147 0-2.16-.819-2.16-2.456v-6.96h1.62v2.047h2.228v1.228h-2.228v3.412c0 .887.27 1.296.81 1.296.27 0 .675-.068 1.081-.341l.472 1.228ZM146.824 21.697v7.506h-1.62V27.7c-.473 1.024-1.418 1.502-2.633 1.502-1.688 0-2.7-1.092-2.7-2.934V21.56h1.62v4.366c0 1.16.675 1.843 1.755 1.843 1.283 0 2.025-1.024 2.025-2.32v-3.684h1.553v-.069ZM153.304 21.697v1.501c-1.485-.068-2.43.82-2.565 2.115v3.958h-1.62v-7.506h1.62v1.433c.473-1.023 1.35-1.5 2.565-1.5ZM159.92 26.883l.945.887c-.81 1.023-1.958 1.5-3.241 1.5-2.295 0-3.847-1.569-3.847-3.82 0-2.183 1.417-3.821 3.712-3.821 2.026 0 3.376 1.228 3.511 3.275l-5.401 1.638c.338.887 1.148 1.432 2.16 1.432.81.069 1.553-.34 2.161-1.091Zm-4.523-1.501 4.118-1.229c-.338-.818-1.013-1.228-1.891-1.228-1.35.069-2.227.887-2.227 2.457Z"/></g><defs><linearGradient id="b" x1="0" x2="82.362" y1="14.61" y2="14.61" gradientUnits="userSpaceOnUse"><stop stop-color="#05B3BC"/><stop offset=".285" stop-color="#048796"/><stop offset=".603" stop-color="#035C71"/><stop offset=".853" stop-color="#02425A"/><stop offset="1" stop-color="#023852"/></linearGradient><clipPath id="a"><path fill="#fff" d="M0 0h161v32H0z"/></clipPath></defs></svg>