<svg xmlns="http://www.w3.org/2000/svg" viewBox="0 0 249 26" fill="none"><g fill="#fff" clip-path="url(#a)"><path d="M64.938 10.008h9.919V6.19H64.52c-2.715 0-4.803.826-6.369 2.477-1.566 1.65-2.297 4.127-2.297 7.428 0 .516 0 .929.105 1.445v.515c0 1.135-.418 2.167-1.253 2.89-.835.722-1.984 1.134-3.55 1.134h-17.33c-.523 0-.731-.31-.731-.825v-1.857c0-.31.104-.62.104-.929.104-.413.209-.722.313-1.032.313-.515.94-.928 1.88-1.134l10.648-2.373c1.984-.413 3.446-1.239 4.385-2.27.94-1.032 1.358-3.096 1.358-4.85 0-2.27-.627-4.023-1.88-5.158C48.652.516 46.772-.103 44.371-.103H29.963v3.92h14.512c1.149 0 1.984.31 2.506.826.627.516.835 1.341.835 2.27 0 .619-.209 1.857-.522 2.27-.417.515-1.044.825-2.088 1.031L34.453 12.69c-1.044.207-1.984.516-2.61.929-.731.413-1.253.825-1.67 1.444-.418.516-.731 1.239-.836 1.96-.104.31-.104.62-.104.93 0 1.134-.418 2.166-1.253 2.888s-1.984 1.135-3.445 1.135c-1.462 0-2.61-.413-3.446-1.135-.73-.722-1.148-1.547-1.252-2.58V6.19h-3.968V18.365c-.104 1.032-.522 1.857-1.253 2.58-.835.825-2.088 1.134-3.654 1.134H8.874c-1.566 0-2.819-.412-3.654-1.135-.835-.825-1.253-1.754-1.253-2.889V6.19H0V18.16c0 1.135.209 2.166.522 3.198.418.929.94 1.754 1.67 2.476.731.723 1.67 1.238 2.715 1.651 1.044.413 2.297.62 3.758.62h2.506c1.462 0 2.715-.207 3.759-.62 1.044-.413 1.983-.929 2.714-1.65l.209-.207.209.206c.73.723 1.67 1.238 2.714 1.651 1.044.413 2.297.516 3.654.62h.209c1.357 0 2.61-.207 3.654-.62.313-.103.73-.31 1.044-.413.209.723.835 1.032 1.775 1.032h20.046c1.46 0 2.714-.206 3.758-.619 1.044-.413 1.983-.929 2.714-1.65l.418-.413c0 .103.104.103.104.206 1.566 1.65 3.654 2.476 6.369 2.476h10.231v-3.817h-9.814c-1.775 0-3.027-.516-3.863-1.445-.835-.928-1.148-2.476-1.148-4.643 0-2.166.418-3.714 1.148-4.643.836-1.134 2.088-1.547 3.863-1.547ZM102.628 11.35v9.8h-3.237v-1.547c-.626 1.135-1.775 1.754-3.132 1.754-2.192 0-3.55-1.444-3.55-3.714v-6.19h3.237v5.261c0 1.135.626 1.754 1.566 1.754 1.148 0 1.88-.928 1.88-2.166v-4.953h3.236ZM115.26 14.96v6.19h-3.236V15.89c0-1.135-.626-1.754-1.671-1.754-1.148 0-1.774.722-1.983 1.857v5.159h-3.237v-9.802h3.237v1.548c.731-1.135 1.879-1.754 3.236-1.754 2.193.103 3.654 1.547 3.654 3.817ZM121.42 18.468c.313 0 .627-.103.94-.206l.313 2.682c-.626.207-1.253.413-1.879.413-1.88 0-3.446-1.135-3.446-3.714V7.738h3.237v9.802c0 .722.313.928.835.928ZM131.13 17.643l1.879 1.65c-1.149 1.342-2.715 1.961-4.594 1.961-3.236 0-5.324-1.96-5.324-4.952s1.983-5.056 5.115-5.056c2.924 0 4.907 1.754 5.012 4.643l-6.682 1.548c.417.825 1.148 1.34 2.088 1.34.835.104 1.775-.309 2.506-1.134Zm-4.803-1.857 3.654-.929c-.209-.825-.835-1.238-1.67-1.238-1.149-.103-1.88.722-1.984 2.167ZM144.702 11.35v9.8h-3.237v-1.237c-.626.825-1.67 1.341-2.923 1.341-2.819 0-4.594-2.064-4.594-5.056s1.775-4.952 4.49-4.952c1.253 0 2.297.516 3.027 1.341V11.35h3.237Zm-3.237 5.261v-.619c-.104-1.238-.939-2.167-2.088-2.167-1.252 0-2.192 1.032-2.192 2.477 0 1.444.835 2.476 2.192 2.476 1.149 0 1.984-.826 2.088-2.167ZM150.653 13.516c-.522 0-.94.206-.94.619 0 1.238 5.22.619 5.22 4.024 0 1.96-1.775 3.198-4.176 3.198-1.67 0-3.236-.516-4.489-1.444l1.044-2.064c1.148.826 2.401 1.238 3.55 1.238.626 0 1.044-.206 1.044-.619 0-1.341-5.116-.619-5.116-4.024 0-2.063 1.775-3.198 4.072-3.198 1.461 0 2.923.413 4.071 1.135l-1.148 2.063c-1.149-.619-2.297-.928-3.132-.928ZM166.94 14.96v6.19h-3.237V15.89c0-1.135-.626-1.754-1.67-1.754-1.253 0-1.984.928-1.984 2.167v4.849h-3.236V7.738h3.236V13c.731-1.135 1.879-1.754 3.237-1.754 2.192 0 3.654 1.444 3.654 3.714ZM175.396 11.865c0-1.032-.835-1.65-2.297-1.65-1.148 0-2.505.618-3.654 1.547l-.835-1.651c1.462-1.135 3.132-1.857 4.803-1.857 2.505 0 4.176 1.238 4.176 3.198 0 1.238-1.044 2.683-2.402 4.127l-3.549 3.508h6.577v1.96h-9.396v-1.444l4.907-4.952c.939-1.032 1.67-2.064 1.67-2.786ZM184.897 13.31c-1.671 0-2.923 1.238-2.923 3.095 0 1.857 1.252 3.095 2.923 3.095 1.253 0 2.192-.413 2.923-1.135l1.149 1.135c-.836 1.135-2.297 1.754-4.177 1.754-2.923 0-4.906-1.96-4.906-4.85 0-2.888 1.983-4.952 4.906-4.952 1.775 0 3.133.516 4.072 1.548l-1.148 1.341a4.273 4.273 0 0 0-2.819-1.031ZM199.826 11.556v9.595h-2.088V19.5c-.73 1.135-1.879 1.754-3.445 1.754-2.819 0-4.698-1.96-4.698-4.952 0-2.89 1.879-4.85 4.594-4.85 1.566 0 2.819.62 3.445 1.754v-1.65h2.192Zm-2.088 5.158v-.722c-.208-1.65-1.357-2.786-2.923-2.786-1.775 0-3.028 1.342-3.028 3.199 0 1.857 1.253 3.095 3.028 3.095 1.566 0 2.715-1.135 2.923-2.786ZM212.981 16.405c0 2.889-1.879 4.849-4.594 4.849-1.566 0-2.714-.62-3.445-1.754v5.159h-2.088V11.556h2.088v1.65c.731-1.135 1.879-1.754 3.445-1.754 2.715 0 4.594 1.96 4.594 4.953Zm-2.088-.103c0-1.754-1.253-3.096-2.923-3.096-1.775 0-2.923 1.342-2.923 3.096 0 1.857 1.252 3.198 2.923 3.198 1.67 0 2.923-1.341 2.923-3.198ZM219.872 20.532c-.731.412-1.566.722-2.297.722-1.566 0-2.819-1.032-2.819-3.199v-8.77h2.088v2.683h2.923v1.445h-2.923v4.333c0 1.135.418 1.65 1.044 1.65.418 0 .835-.102 1.462-.412l.522 1.548ZM230.521 11.555v9.596h-2.088v-1.857c-.627 1.34-1.88 1.96-3.446 1.96-2.192 0-3.549-1.445-3.549-3.715v-5.984h2.088v5.366c0 1.444.835 2.373 2.297 2.373 1.67 0 2.714-1.342 2.714-2.992v-4.747h1.984ZM238.873 11.452v1.96c-1.984-.103-3.236 1.032-3.341 2.683v5.056h-2.088v-9.595h2.088v1.857c.627-1.238 1.775-1.96 3.341-1.96ZM247.643 18.159l1.253 1.135c-1.149 1.34-2.506 1.96-4.176 1.96-3.028 0-5.116-1.96-5.116-4.85 0-2.785 1.879-4.849 4.907-4.849 2.61 0 4.385 1.548 4.593 4.23l-7.099 2.064c.522 1.135 1.462 1.857 2.819 1.857 1.044-.103 1.984-.619 2.819-1.547Zm-5.951-1.96 5.324-1.548c-.417-1.135-1.252-1.548-2.401-1.548-1.879 0-2.923 1.135-2.923 3.095Z"/></g><defs><clipPath id="a"><path fill="#fff" d="M0 0h249v26H0z"/></clipPath></defs></svg>